<svg xmlns="http://www.w3.org/2000/svg" xmlns:xlink="http://www.w3.org/1999/xlink" width="500" zoomAndPan="magnify" viewBox="0 0 375 149.999998" height="200" preserveAspectRatio="xMidYMid meet" version="1.0"><defs><g/><clipPath id="88b8dd18f3"><path d="M 3.53125 26 L 302.78125 26 L 302.78125 95.621094 L 3.53125 95.621094 Z M 3.53125 26 " clip-rule="nonzero"/></clipPath></defs><g clip-path="url(#88b8dd18f3)"><path fill="#ffffff" d="M 301.960938 73.582031 C 302.121094 73.398438 302.300781 73.234375 302.503906 73.097656 C 302.628906 72.894531 302.78125 72.707031 302.964844 72.546875 C 302.914062 72.324219 302.867188 72.101562 302.820312 71.882812 C 302.621094 71.925781 302.40625 71.949219 302.175781 71.949219 C 302.019531 71.949219 301.871094 71.9375 301.730469 71.914062 C 301.730469 71.957031 301.730469 72 301.730469 72.039062 C 298.128906 75.066406 294.160156 77.566406 289.917969 79.667969 C 287 81.117188 283.957031 82.269531 280.847656 83.234375 C 275.984375 84.738281 271.058594 85.96875 266.015625 86.753906 C 263.871094 87.085938 261.714844 87.253906 259.554688 87.460938 C 254.550781 87.964844 249.542969 87.835938 244.554688 87.28125 C 238.496094 86.597656 232.558594 85.203125 226.796875 83.175781 C 219.527344 80.609375 212.589844 77.347656 205.980469 73.414062 L 207.199219 72.832031 C 208.15625 72.320312 209.125 71.847656 210.066406 71.328125 C 214.550781 68.894531 218.792969 66.101562 222.644531 62.742188 C 225.796875 60 228.648438 56.980469 231.050781 53.546875 C 232.457031 51.519531 233.675781 49.386719 234.617188 47.09375 C 235.449219 45.078125 235.925781 42.992188 235.96875 40.808594 C 236.011719 38.675781 235.535156 36.664062 234.5 34.8125 C 233.074219 32.269531 230.890625 30.5625 228.082031 29.878906 C 224.230469 28.945312 220.4375 29.210938 216.800781 30.960938 C 213.917969 32.355469 211.375 34.179688 209.355469 36.699219 C 209.214844 36.875 209.066406 37.050781 208.90625 37.222656 C 208.699219 37.464844 208.472656 37.464844 208.398438 37.214844 C 208.222656 36.625 208.066406 36.03125 207.863281 35.449219 C 206.746094 32.253906 204.746094 29.820312 201.710938 28.261719 C 200.753906 27.761719 199.761719 27.367188 198.726562 27.027344 C 195.226562 25.875 191.875 26.261719 188.679688 28.019531 C 185.429688 29.8125 183.269531 32.554688 182.0625 36.03125 C 180.894531 39.375 180.710938 42.816406 181.367188 46.292969 C 182.285156 51.136719 184.246094 55.546875 187.113281 59.550781 C 188.640625 61.683594 190.371094 63.644531 192.238281 65.492188 C 194.875 68.109375 197.734375 70.4375 200.851562 72.464844 C 201.234375 72.714844 201.953125 73.230469 202.304688 73.511719 L 200.902344 74.207031 C 197.023438 75.730469 193.046875 76.933594 188.980469 77.859375 C 179.902344 79.917969 170.695312 80.425781 161.417969 79.898438 C 155.183594 79.550781 148.996094 78.667969 142.828125 77.722656 C 140.851562 77.414062 138.882812 77.039062 136.914062 76.664062 C 134.796875 76.265625 132.6875 75.804688 130.570312 75.398438 C 128.453125 74.988281 126.328125 74.605469 124.210938 74.207031 C 122.46875 73.871094 120.726562 73.53125 118.992188 73.179688 C 116.800781 72.746094 114.613281 72.289062 112.421875 71.871094 C 110.070312 71.429688 107.71875 71.011719 105.367188 70.597656 C 102.484375 70.097656 99.609375 69.511719 96.707031 69.128906 C 91.054688 68.378906 85.425781 67.429688 79.734375 66.953125 C 72.828125 66.292969 65.925781 65.570312 58.980469 65.511719 C 55.898438 65.484375 52.820312 65.484375 49.734375 65.578125 C 45.34375 65.703125 40.984375 66.152344 36.640625 66.84375 C 32.453125 67.519531 28.3125 68.429688 24.308594 69.863281 C 21.109375 71.011719 18.0625 72.488281 15.273438 74.457031 C 12.519531 76.382812 10.246094 78.765625 8.433594 81.582031 C 6.976562 83.859375 5.777344 86.277344 4.890625 88.835938 C 4.46875 90.070312 4.125 91.335938 3.785156 92.605469 C 3.542969 93.480469 3.773438 94.28125 4.367188 94.972656 C 5.035156 95.75 6.269531 95.933594 7.09375 95.390625 C 7.910156 94.855469 8.253906 93.890625 7.953125 92.972656 C 7.902344 92.820312 7.851562 92.671875 7.785156 92.539062 C 7.210938 91.371094 7.21875 90.15625 7.46875 88.921875 C 7.585938 88.320312 7.710938 87.710938 7.867188 87.121094 C 8.6875 84.019531 10.085938 81.226562 12.210938 78.800781 C 14.0625 76.691406 16.246094 75.007812 18.664062 73.605469 C 21.617188 71.886719 24.777344 70.679688 28.0625 69.785156 C 35.378906 67.777344 42.835938 66.753906 50.421875 66.628906 C 52.269531 66.59375 54.121094 66.644531 55.972656 66.59375 C 59.675781 66.496094 63.367188 66.769531 67.0625 66.945312 C 75.625 67.351562 84.085938 68.644531 92.574219 69.71875 C 92.648438 69.730469 92.722656 69.746094 92.796875 69.753906 C 96.300781 70.3125 99.800781 70.863281 103.292969 71.445312 C 105.652344 71.835938 107.996094 72.28125 110.347656 72.714844 C 111.9375 73.003906 113.523438 73.328125 115.105469 73.648438 C 117.226562 74.070312 119.332031 74.511719 121.453125 74.921875 C 123.570312 75.339844 125.695312 75.714844 127.8125 76.121094 C 131.515625 76.847656 135.207031 77.648438 138.925781 78.289062 C 142.417969 78.890625 145.902344 79.558594 149.4375 79.90625 C 151.058594 80.066406 152.65625 80.316406 154.257812 80.515625 C 158.785156 81.097656 163.328125 81.265625 167.871094 81.339844 C 171.722656 81.410156 175.566406 81.148438 179.402344 80.714844 C 185.003906 80.082031 190.507812 78.988281 195.890625 77.304688 C 198.277344 76.566406 201.601562 75.363281 203.945312 74.386719 C 206.890625 76.128906 209.890625 77.757812 212.972656 79.25 C 219.070312 82.199219 225.320312 84.734375 231.882812 86.460938 C 234.867188 87.242188 237.871094 87.976562 240.921875 88.4375 C 245.128906 89.0625 249.375 89.34375 254.007812 89.238281 C 257.078125 89.3125 260.488281 88.960938 263.871094 88.496094 C 270.574219 87.585938 277.117188 85.917969 283.496094 83.617188 C 289.089844 81.59375 294.335938 78.875 299.21875 75.464844 C 300.164062 74.804688 301.054688 74.097656 301.929688 73.378906 Z M 204.113281 72.246094 C 203.714844 72.03125 203.304688 71.804688 202.914062 71.554688 C 197.925781 68.386719 193.601562 64.476562 189.941406 59.832031 C 187.132812 56.28125 185.148438 52.3125 183.972656 47.9375 C 183.347656 45.609375 183.046875 43.257812 183.304688 41.160156 C 183.472656 39.242188 183.707031 37.640625 184.332031 36.125 C 185.230469 33.9375 186.546875 32.0625 188.433594 30.628906 C 191.175781 28.527344 194.25 27.953125 197.601562 28.738281 C 199.195312 29.113281 200.671875 29.753906 202.039062 30.644531 C 204.546875 32.296875 206.125 34.582031 206.714844 37.523438 C 206.988281 38.898438 207.023438 40.285156 206.40625 41.601562 C 206.105469 42.234375 205.898438 42.894531 205.929688 43.601562 C 205.949219 43.820312 206.046875 44.042969 206.140625 44.242188 C 206.246094 44.476562 206.765625 44.59375 206.949219 44.445312 C 207.0625 44.34375 207.207031 44.269531 207.296875 44.152344 C 208.03125 43.167969 208.773438 42.183594 209.492188 41.175781 C 209.890625 40.617188 210.242188 40.015625 210.617188 39.433594 C 212.417969 36.648438 214.816406 34.539062 217.6875 32.921875 C 219.328125 31.996094 221.085938 31.480469 222.945312 31.328125 C 224.488281 31.214844 226.03125 31.253906 227.546875 31.605469 C 230.542969 32.28125 232.683594 34.015625 233.769531 36.914062 C 234.660156 39.308594 234.703125 41.742188 234.042969 44.191406 C 233.601562 45.828125 232.96875 47.394531 232.175781 48.902344 C 230.707031 51.722656 228.898438 54.304688 226.796875 56.683594 C 223.421875 60.515625 219.5625 63.816406 215.300781 66.644531 C 212.410156 68.570312 209.40625 70.289062 206.28125 71.8125 C 205.929688 71.980469 205.0625 72.386719 204.707031 72.53125 C 204.707031 72.53125 204.480469 72.457031 204.113281 72.246094 Z M 204.113281 72.246094 " fill-opacity="1" fill-rule="nonzero"/></g><g fill="#ffffff" fill-opacity="1"><g transform="translate(300.237612, 92.021297)"><g><path d="M 11.367188 10.542969 C 18.78125 5.023438 29.242188 -13.425781 33.773438 -19.355469 C 33.773438 -19.769531 32.699219 -19.769531 32.371094 -19.4375 C 28.828125 -14.910156 16.96875 5.4375 9.882812 10.132812 C 0.988281 15.816406 2.964844 -1.070312 3.460938 -5.683594 C 4.117188 -12.4375 5.4375 -19.523438 6.261719 -22.898438 C 33.195312 -53.128906 29.984375 -69.109375 21.664062 -69.109375 C 11.53125 -69.109375 4.035156 -48.929688 0.742188 -28.253906 C -0.578125 -19.933594 -1.152344 -11.449219 -0.988281 -4.285156 C -0.90625 -0.246094 -0.90625 12.933594 5.683594 12.933594 C 7.25 12.933594 9.144531 12.191406 11.367188 10.542969 Z M 6.507812 -25.039062 C 8.566406 -43.820312 15.320312 -66.96875 21.25 -67.875 C 28.253906 -68.449219 31.21875 -54.527344 6.507812 -25.039062 Z M 6.507812 -25.039062 "/></g></g></g><g fill="#ffffff" fill-opacity="1"><g transform="translate(332.278812, 92.021297)"><g><path d="M 7 20.757812 C 17.792969 18.449219 18.367188 7 14.25 -2.472656 C 20.261719 -4.859375 29.652344 -9.390625 36.738281 -19.273438 C 37.148438 -19.851562 36.160156 -20.179688 35.171875 -19.355469 C 29.734375 -11.449219 20.757812 -6.179688 13.757812 -3.460938 C 10.378906 -10.378906 7.578125 -14.414062 4.695312 -19.851562 C 0.90625 -26.933594 4.613281 -32.125 9.882812 -33.523438 C 14.660156 -34.761719 19.191406 -28.5 14.578125 -22.570312 L 16.144531 -22.570312 C 20.34375 -28.828125 16.308594 -35.5 9.800781 -34.761719 C 1.484375 -33.855469 -3.789062 -26.441406 1.152344 -16.472656 C 3.789062 -11.203125 7.742188 -4.53125 9.636719 -1.152344 C -8.894531 5.105469 -4.285156 23.144531 7 20.757812 Z M 7.578125 19.4375 C -2.472656 22.898438 -7.578125 6.261719 10.050781 -0.164062 C 13.839844 8.894531 11.613281 18.039062 7.578125 19.4375 Z M 7.578125 19.4375 "/></g></g></g><g fill="#ffffff" fill-opacity="1"><g transform="translate(62.557842, 113.311781)"><g><path d="M 3.59375 -12.9375 L 3.59375 -1.6875 L 10.1875 -1.6875 L 10.1875 0 L 1.859375 0 L 1.859375 -12.9375 Z M 3.59375 -12.9375 "/></g></g></g><g fill="#ffffff" fill-opacity="1"><g transform="translate(78.283544, 113.311781)"><g><path d="M 3.4375 -4.578125 C 3.4375 -4.003906 3.570312 -3.488281 3.84375 -3.03125 C 4.125 -2.570312 4.5 -2.207031 4.96875 -1.9375 C 5.4375 -1.664062 5.957031 -1.53125 6.53125 -1.53125 C 7.125 -1.53125 7.660156 -1.660156 8.140625 -1.921875 C 8.628906 -2.191406 9.007812 -2.554688 9.28125 -3.015625 C 9.5625 -3.484375 9.703125 -4.003906 9.703125 -4.578125 L 9.703125 -12.9375 L 11.390625 -12.9375 L 11.390625 -4.53125 C 11.390625 -3.613281 11.175781 -2.796875 10.75 -2.078125 C 10.320312 -1.367188 9.738281 -0.820312 9 -0.4375 C 8.257812 -0.0507812 7.4375 0.140625 6.53125 0.140625 C 5.632812 0.140625 4.816406 -0.0507812 4.078125 -0.4375 C 3.335938 -0.820312 2.753906 -1.367188 2.328125 -2.078125 C 1.910156 -2.796875 1.703125 -3.613281 1.703125 -4.53125 L 1.703125 -12.9375 L 3.4375 -12.9375 Z M 3.4375 -4.578125 "/></g></g></g><g fill="#ffffff" fill-opacity="1"><g transform="translate(95.976938, 113.311781)"><g><path d="M 13.125 -12.9375 L 13.125 0.421875 L 13.078125 0.421875 L 3.578125 -9.21875 L 3.609375 0 L 1.859375 0 L 1.859375 -13.328125 L 1.953125 -13.328125 L 11.4375 -3.578125 L 11.390625 -12.9375 Z M 13.125 -12.9375 "/></g></g></g><g fill="#ffffff" fill-opacity="1"><g transform="translate(115.566492, 113.311781)"><g><path d="M 8.640625 -3.40625 L 3.671875 -3.40625 L 2.296875 0 L 0.578125 0 L 6.21875 -13.46875 L 6.328125 -13.46875 L 11.984375 0 L 9.984375 0 Z M 8.046875 -4.90625 L 6.203125 -9.625 L 4.296875 -4.90625 Z M 8.046875 -4.90625 "/></g></g></g><g fill="#ffffff" fill-opacity="1"><g transform="translate(132.705365, 113.311781)"><g/></g></g><g fill="#ffffff" fill-opacity="1"><g transform="translate(142.957269, 113.311781)"><g><path d="M 8.546875 -10.625 C 8.085938 -10.875 7.59375 -11.078125 7.0625 -11.234375 C 6.539062 -11.390625 6.046875 -11.46875 5.578125 -11.46875 C 4.878906 -11.46875 4.320312 -11.304688 3.90625 -10.984375 C 3.5 -10.671875 3.296875 -10.242188 3.296875 -9.703125 C 3.296875 -9.160156 3.535156 -8.71875 4.015625 -8.375 C 4.492188 -8.039062 5.179688 -7.707031 6.078125 -7.375 C 6.742188 -7.132812 7.304688 -6.875 7.765625 -6.59375 C 8.234375 -6.3125 8.617188 -5.921875 8.921875 -5.421875 C 9.222656 -4.929688 9.375 -4.304688 9.375 -3.546875 C 9.375 -2.847656 9.203125 -2.21875 8.859375 -1.65625 C 8.515625 -1.101562 8.019531 -0.664062 7.375 -0.34375 C 6.738281 -0.0195312 5.992188 0.140625 5.140625 0.140625 C 4.335938 0.140625 3.566406 0.015625 2.828125 -0.234375 C 2.085938 -0.492188 1.4375 -0.820312 0.875 -1.21875 L 1.640625 -2.59375 C 2.085938 -2.257812 2.617188 -1.972656 3.234375 -1.734375 C 3.859375 -1.503906 4.4375 -1.390625 4.96875 -1.390625 C 5.664062 -1.390625 6.269531 -1.566406 6.78125 -1.921875 C 7.300781 -2.285156 7.5625 -2.820312 7.5625 -3.53125 C 7.5625 -4.125 7.34375 -4.59375 6.90625 -4.9375 C 6.476562 -5.289062 5.867188 -5.625 5.078125 -5.9375 C 4.347656 -6.207031 3.742188 -6.472656 3.265625 -6.734375 C 2.785156 -7.003906 2.367188 -7.367188 2.015625 -7.828125 C 1.671875 -8.285156 1.5 -8.859375 1.5 -9.546875 C 1.5 -10.566406 1.851562 -11.390625 2.5625 -12.015625 C 3.269531 -12.640625 4.191406 -12.96875 5.328125 -13 C 6.722656 -13 8.019531 -12.65625 9.21875 -11.96875 Z M 8.546875 -10.625 "/></g></g></g><g fill="#ffffff" fill-opacity="1"><g transform="translate(157.96744, 113.311781)"><g><path d="M 8.640625 -3.40625 L 3.671875 -3.40625 L 2.296875 0 L 0.578125 0 L 6.21875 -13.46875 L 6.328125 -13.46875 L 11.984375 0 L 9.984375 0 Z M 8.046875 -4.90625 L 6.203125 -9.625 L 4.296875 -4.90625 Z M 8.046875 -4.90625 "/></g></g></g><g fill="#ffffff" fill-opacity="1"><g transform="translate(175.106317, 113.311781)"><g><path d="M 14.71875 -13.34375 L 14.71875 0 L 13 0 L 13 -8.375 L 8.25 -1.625 L 8.21875 -1.625 L 3.546875 -8.140625 L 3.546875 0 L 1.859375 0 L 1.859375 -13.34375 L 1.875 -13.34375 L 8.25 -4.328125 L 14.703125 -13.34375 Z M 14.71875 -13.34375 "/></g></g></g><g fill="#ffffff" fill-opacity="1"><g transform="translate(196.28792, 113.311781)"><g><path d="M 8.640625 -3.40625 L 3.671875 -3.40625 L 2.296875 0 L 0.578125 0 L 6.21875 -13.46875 L 6.328125 -13.46875 L 11.984375 0 L 9.984375 0 Z M 8.046875 -4.90625 L 6.203125 -9.625 L 4.296875 -4.90625 Z M 8.046875 -4.90625 "/></g></g></g><g fill="#ffffff" fill-opacity="1"><g transform="translate(213.426788, 113.311781)"><g><path d="M 1.859375 -12.9375 L 5.40625 -12.9375 C 7.007812 -12.9375 8.335938 -12.613281 9.390625 -11.96875 C 10.453125 -11.332031 11.222656 -10.507812 11.703125 -9.5 C 12.191406 -8.5 12.4375 -7.4375 12.4375 -6.3125 C 12.4375 -5.0625 12.144531 -3.957031 11.5625 -3 C 10.976562 -2.039062 10.195312 -1.300781 9.21875 -0.78125 C 8.238281 -0.257812 7.175781 0 6.03125 0 L 1.859375 0 Z M 5.6875 -1.6875 C 6.644531 -1.6875 7.5 -1.875 8.25 -2.25 C 9 -2.625 9.582031 -3.164062 10 -3.875 C 10.425781 -4.59375 10.640625 -5.445312 10.640625 -6.4375 C 10.640625 -7.457031 10.421875 -8.328125 9.984375 -9.046875 C 9.546875 -9.773438 8.957031 -10.328125 8.21875 -10.703125 C 7.488281 -11.078125 6.695312 -11.265625 5.84375 -11.265625 L 3.59375 -11.265625 L 3.59375 -1.6875 Z M 5.6875 -1.6875 "/></g></g></g><g fill="#ffffff" fill-opacity="1"><g transform="translate(231.513726, 113.311781)"><g><path d="M 11.875 -12.9375 L 7.03125 -4.3125 L 7.03125 0 L 5.296875 0 L 5.296875 -4.3125 L 0.5 -12.9375 L 2.640625 -12.9375 L 6.203125 -6.28125 L 9.75 -12.9375 Z M 11.875 -12.9375 "/></g></g></g></svg>